<?xml version="1.0" encoding="UTF-8"?>
<svg id="Layer_2" data-name="Layer 2" xmlns="http://www.w3.org/2000/svg" viewBox="0 0 41.05 51.43">
  <defs>
    <style>
      .cls-1 {
        stroke-width: 1.4px;
      }

      .cls-1, .cls-2 {
        fill: none;
        stroke: #fff;
        stroke-linecap: round;
        stroke-linejoin: round;
      }

      .cls-2 {
        stroke-width: 1.43px;
      }
    </style>
  </defs>
  <g id="Layer_1-2" data-name="Layer 1">
    <g>
      <g>
        <path class="cls-2" d="m29.58,30.62l1.12.74,9.63,6.33-19.81,13.02v-14.88c.34,0,.68-.02,1.02-.05"/>
        <line class="cls-2" x1="20.52" y1="14.9" x2="20.52" y2="13.04"/>
        <polyline class="cls-2" points="10.35 31.36 .72 37.69 20.52 50.72 20.52 37.69 20.52 35.84"/>
      </g>
      <path class="cls-2" d="m14.7,16.66c-.08.05-.16.1-.23.16,0,0,0,0-.01,0-1.32.94-2.41,2.18-3.18,3.61-.78,1.47-1.23,3.14-1.23,4.93,0,1.92.52,3.71,1.41,5.26.75,1.3,1.78,2.42,2.99,3.28,0,0,0,0,.01,0,.08.05.15.11.23.16l-.24-.15s0,0-.01,0l-4.1-2.55L.72,25.37"/>
      <path class="cls-2" d="m29.77,20.44c-.78-1.45-1.88-2.7-3.22-3.64-.07-.05-.15-.1-.22-.15,0,0-.02-.01-.03-.02l-.58-.36c-.07-.04-.14-.08-.21-.12,0,0-.01,0-.02,0-1.48-.8-3.18-1.25-4.98-1.25s-3.49.46-4.97,1.25c0,0-.01,0-.02,0-.08.04-.16.09-.24.13l.23-.14s0,0,.02,0l4.98-3.1L40.33.72v24.65l-9.63,5.99-1.12-.74"/>
      <path class="cls-2" d="m26.33,34.08l.23-.14c-.33.23-.68.45-1.04.65,0,0-.01,0-.02,0l-4.98,3.1-4.98-3.1s-.01,0-.02,0l-.27-.17"/>
      <path class="cls-2" d="m26.33,16.65c.07.05.15.1.22.15,1.34.94,2.44,2.19,3.22,3.64m-4,13.99l-.24.15s-.01,0-.02,0l-4.98,3.1-4.98-3.1s-.01,0-.02,0c-.37-.2-.72-.42-1.06-.66,0,0,0,0-.01,0l-4.1-2.55L.72,25.37V.72l19.81,12.33,4.98,3.1s0,0,.02,0l.2.13c-.07-.04-.14-.08-.21-.12,0,0-.01,0-.02,0-1.48-.8-3.18-1.25-4.98-1.25s-3.49.46-4.97,1.25c0,0-.01,0-.02,0-.08.04-.16.09-.24.13l-.57.35s-.02.01-.03.02c-.08.05-.16.1-.23.16,0,0,0,0-.01,0-1.32.94-2.41,2.18-3.18,3.61m18.3,10.18l1.12.74,9.63-5.99"/>
      <path class="cls-1" d="m15.3,16.29l-.57.35c.19-.12.37-.24.57-.35Z"/>
      <path class="cls-1" d="m29.76,30.29h0c.05-.09.1-.18.14-.28.05-.1.1-.2.14-.3.05-.1.09-.2.13-.3.04-.09.08-.19.11-.28.04-.09.07-.19.11-.28.02-.06.04-.11.06-.17,0,0,0,0,0-.01.02-.06.04-.12.06-.18,0,0,0-.02,0-.03,0,0,0,0,0,0,0,0,0-.02,0-.02.03-.09.05-.18.08-.28,0-.01,0-.03.01-.05.01-.05.02-.09.04-.14.01-.04.02-.09.03-.13,0,0,0,0,0-.01,0-.02,0-.04.01-.06,0-.01,0-.03,0-.04.02-.09.04-.17.06-.26,0,0,0,0,0-.02,0-.02,0-.04,0-.06,0-.04.02-.07.02-.11,0-.05.02-.11.03-.17.01-.06.02-.11.03-.17,0-.06.02-.11.02-.17.01-.09.02-.19.03-.28.01-.1.02-.21.03-.32,0-.04,0-.08,0-.12,0-.11.01-.22.02-.33,0-.12,0-.24,0-.36s0-.24,0-.36c0-.16-.01-.31-.03-.46,0-.11-.02-.21-.03-.32h0c0-.1-.02-.18-.03-.27-.01-.11-.03-.23-.05-.34-.02-.1-.04-.21-.06-.31v-.07s-.01,0-.02,0c-.01-.07-.03-.13-.04-.2,0-.01,0-.02,0-.03,0-.04-.02-.08-.03-.11-.02-.07-.03-.14-.05-.2h0c-.02-.07-.04-.14-.06-.21,0-.04-.02-.08-.03-.12-.02-.08-.05-.17-.08-.25-.02-.07-.05-.15-.07-.22-.07-.19-.14-.38-.22-.56-.04-.1-.09-.21-.14-.31-.09-.19-.18-.38-.28-.56h0s-.01-.03-.02-.04c-.05-.1-.11-.2-.16-.29-.25-.43-.52-.83-.83-1.22-.06-.08-.12-.15-.18-.22-.05-.05-.09-.1-.13-.16-.06-.07-.12-.14-.18-.21-.06-.07-.13-.14-.19-.2-.06-.06-.12-.13-.19-.19-.27-.27-.55-.52-.85-.76-.14-.11-.29-.22-.44-.33,0,0,0,0,0,0,0,0,0,0,0,0-.08-.05-.15-.11-.23-.16,0,0,0,0-.02,0,0,0,0,0,0,0l-.53-.33h0c-.09-.05-.18-.11-.27-.16,0,0,0,0-.02,0-.07-.04-.15-.08-.23-.12-.15-.08-.31-.15-.46-.22-.08-.03-.16-.07-.24-.1-.24-.1-.48-.19-.72-.27-.07-.02-.15-.05-.22-.07-.12-.04-.25-.08-.38-.11-.05-.01-.1-.03-.14-.04-.1-.02-.19-.05-.29-.07-.09-.02-.18-.04-.27-.06-.12-.02-.25-.05-.37-.07-.08-.01-.17-.03-.25-.04-.12-.02-.25-.03-.37-.04-.13-.01-.27-.02-.4-.03-.08,0-.16,0-.24-.01-.02,0-.05,0-.07,0-.1,0-.21,0-.31,0s-.21,0-.31,0c-.02,0-.05,0-.07,0-.08,0-.16,0-.24.01-.13,0-.27.02-.4.03-.13.01-.26.03-.39.05-.07,0-.15.02-.22.03-.07.01-.15.02-.22.04-.06.01-.12.02-.18.03-.18.04-.37.08-.55.12l-.24.06c-.09.02-.17.05-.26.08-.08.03-.16.05-.25.08-.25.08-.49.17-.72.27-.09.04-.17.07-.26.11-.07.03-.14.06-.21.1-.15.07-.31.15-.46.23,0,0,0,0-.02,0-.08.04-.16.09-.23.13,0,0,0,0-.01,0,0,0-.01,0-.02.01l-.52.32s-.02.01-.03.02c0,0-.01,0-.02,0l-.21.14s-.02.01-.03.02c-.07.05-.13.1-.2.15-.08.05-.15.11-.22.17-.06.05-.12.1-.19.15-.16.13-.31.26-.46.4-.07.06-.13.12-.2.19h-.01c-.06.08-.13.14-.19.21-.06.07-.13.14-.19.21-.32.35-.61.71-.88,1.1-.05.08-.11.16-.16.23-.05.08-.1.16-.15.24s-.1.16-.15.24c-.06.1-.11.19-.16.29,0,.01-.01.02-.02.04h0c-.05.09-.1.18-.14.28-.05.1-.1.2-.14.3-.05.1-.09.2-.13.3-.08.19-.15.37-.22.57-.02.05-.04.1-.05.16,0,0,0,0,0,.01s0,0,0,.01c-.02.06-.04.12-.06.18,0,0,0,.02,0,.03,0,0,0,0,0,0,0,.03-.02.05-.02.08-.02.07-.05.15-.06.22,0,.02,0,.03-.01.05v.03c-.03.08-.05.16-.07.24,0,0,0,0,0,0v.06s-.02.03-.02.04c-.02.09-.04.17-.06.26,0,0,0,.01,0,.02,0,.02,0,.04,0,.06-.02.09-.04.18-.05.28-.02.11-.04.23-.05.34,0,.05-.01.1-.02.15,0,.05-.01.09-.01.13-.01.09-.02.18-.03.27,0,.03,0,.05,0,.08,0,.01,0,.03,0,.04,0,.13-.02.25-.02.38,0,.12,0,.24,0,.36s0,.24,0,.36c0,.1,0,.21.01.31,0,.02,0,.03,0,.05,0,0,0,0,0,.02,0,.03,0,.06,0,.09,0,.01,0,.03,0,.04,0,.09.02.19.03.28,0,.09.02.18.03.27.01.11.03.23.05.34.02.1.04.21.06.31,0,.02,0,.05.01.07.01.08.03.16.05.24,0,.02,0,.04.01.06,0,.01,0,.03.01.04,0,0,0,0,0,.01,0,0,0,.01,0,.02.01.06.03.12.05.18h0c.01.05.02.09.04.13,0,.02,0,.04.02.06.01.04.02.09.04.13.02.09.05.17.08.26.02.07.05.15.07.22.07.19.14.38.22.56.04.1.09.21.14.31.05.11.11.23.16.34.04.08.08.15.12.23h0"/>
      <path class="cls-1" d="m11.28,20.44h0c-.05.09-.1.18-.14.28-.1.2-.19.39-.27.6-.08.19-.15.37-.22.57-.02.05-.04.11-.06.17-.02.07-.05.15-.07.22,0,0,0,0,0,0-.03.1-.06.2-.09.3,0,.02,0,.03-.01.05-.03.09-.05.19-.07.28v.06c-.04.1-.06.2-.08.3,0,0,0,.01,0,.02-.02.11-.04.22-.06.33-.02.11-.04.23-.05.34-.01.09-.03.19-.03.28-.03.26-.05.52-.05.78,0,.12,0,.24,0,.36s0,.24,0,.36c0,.26.03.52.05.78,0,.09.02.18.03.27.01.11.03.23.05.34.02.1.04.21.06.31,0,.02,0,.05.01.07.02.08.03.16.05.24,0,.04.02.08.03.11.02.07.03.14.05.2.05.2.11.39.17.58.02.07.05.15.07.22.07.19.14.38.22.56.04.1.09.21.14.31.09.19.18.38.28.56.06.11.12.22.18.33.75,1.3,1.78,2.42,2.99,3.28,0,0,0,0,.01,0,.08.05.15.11.23.16,0,0,.02,0,.03.02l.53.33h0c.09.05.18.11.27.16,0,0,0,0,.02,0,1.19.65,2.53,1.07,3.95,1.21.34.03.68.05,1.02.05s.68-.02,1.02-.05c1.42-.14,2.75-.56,3.95-1.21,0,0,0,0,.02,0,.08-.05.16-.09.25-.14,0,0,.01,0,.02-.01l.52-.32s.02-.01.03-.02c.07-.05.15-.1.22-.15,1.23-.87,2.27-2,3.03-3.31.06-.11.12-.22.18-.33.05-.09.1-.18.15-.28.1-.2.19-.39.27-.6.08-.19.15-.37.22-.57.02-.06.04-.11.06-.17.02-.07.05-.15.07-.22,0,0,0,0,0,0,.03-.1.06-.2.09-.3,0-.01,0-.03.01-.05.02-.09.05-.18.07-.28,0-.02,0-.04.01-.06.02-.1.04-.2.06-.3,0,0,0,0,0-.02.02-.11.04-.22.06-.33.02-.11.04-.23.05-.34.01-.09.02-.19.03-.28.03-.26.05-.52.05-.78,0-.12,0-.24,0-.36s0-.24,0-.36c0-.26-.03-.52-.05-.78,0-.09-.02-.18-.03-.27-.01-.11-.03-.23-.05-.34-.02-.1-.04-.21-.06-.31v-.07c-.03-.08-.05-.16-.07-.24,0-.04-.02-.08-.03-.11-.02-.07-.03-.14-.05-.2-.05-.2-.11-.39-.17-.58-.02-.07-.05-.15-.07-.22-.07-.19-.14-.38-.22-.56-.04-.1-.09-.21-.14-.31-.09-.19-.18-.38-.28-.56h0"/>
      <line class="cls-1" x1="20.52" y1="14.9" x2="11.47" y2="30.62"/>
      <line class="cls-1" x1="29.58" y1="30.62" x2="20.52" y2="14.9"/>
      <line class="cls-1" x1="11.47" y1="30.62" x2="29.58" y2="30.62"/>
      <line class="cls-1" x1="40.33" y1=".72" x2="29.91" y2="30.02"/>
      <line class="cls-1" x1=".72" y1=".72" x2="11.47" y2="30.62"/>
    </g>
  </g>
</svg>