<?xml version="1.0" encoding="utf-8"?>
<!-- Generator: Adobe Illustrator 27.2.0, SVG Export Plug-In . SVG Version: 6.00 Build 0)  -->
<svg version="1.1" id="Layer_1" xmlns="http://www.w3.org/2000/svg" xmlns:xlink="http://www.w3.org/1999/xlink" x="0px" y="0px"
	 viewBox="0 0 512 512" style="enable-background:new 0 0 512 512;" xml:space="preserve">
<style type="text/css">
	.st0{fill:#515151;stroke:#515151;stroke-width:6;stroke-miterlimit:10;}
	.st1{fill:#D63447;}
</style>
<path class="st0" d="M367.5,14c1.2,1.6,2.9,3,3.6,4.8c1.9,5.3-1.7,9.4-8.2,9.4c-32,0-63.9,0-95.9,0c-7.6,0-14.7,1.4-21.2,5.4
	c-12.2,7.4-19.1,18.2-19.2,32.6c-0.2,26.6-0.1,53.2,0,79.9c0,1.7,1.2,3.9,2.6,5c11.1,9.3,16.5,21.2,16.4,35.6
	c0,24.6,0.1,49.1-0.1,73.7c0,3.3,0.8,5.6,4.1,6.3c5.8,1.2,11.6,3.2,17.5,3.3c27.2,0.4,54.5,0.1,81.7,0.2c8,0,10,2.1,10.1,10.1
	c0,7.7,0,15.4,0,24.2c2-1.4,3.3-2.3,4.6-3.3c12-9.2,24.1-18.3,36-27.6c3.2-2.5,6.4-3.6,10.4-3.4c6.1,0.2,12.3,0.1,18.4,0
	c24.1-0.1,40.6-16.6,40.7-40.7c0.1-41,0-81.9,0-122.9c0-12.6,0.1-25.2,0-37.8c-0.1-23.9-16.6-40.4-40.4-40.5c-5.4,0-10.7-0.1-16.1,0
	c-3.9,0.1-7.8,0.1-9.5-4.3c-1.6-4.1,0.4-7.2,3.4-9.9c10.1,0,20.2,0,30.3,0c4.1,1.2,8.2,2.1,12.1,3.5c20.3,7.5,34.2,26.6,34.3,48.1
	c0.2,55.6,0.3,111.2,0,166.8c-0.2,28.2-23,50.5-51.8,51.6c-0.9,0-1.9,0.2-2.8,0c-13.9-2.2-25,2.5-35.4,11.8
	c-11,9.8-23.4,18.1-35.1,27.2c-2.8,2.1-5.5,3.7-9.1,1.9c-3.5-1.7-4.1-4.7-4.1-8.3c0.1-10.7,0-21.4,0-32.1
	c-33.2-2.3-66.1,2.6-98.9-3.3c0,11.4,0,23.2,0,35.6c1.9,0,3.6,0,5.3,0c18.3,0,36.6,0,54.8,0c22.2,0.1,35.6,13.5,35.6,35.6
	c0,9.9,0,19.9,0,29.8c0,6.2-2.3,9-7.2,8.9c-4.7-0.1-6.9-2.7-6.9-8.7c-0.1-10.2,0-20.5,0-30.7c-0.1-13.4-7.4-20.7-20.9-20.7
	c-29.3-0.1-58.6-0.1-87.9,0c-13.5,0-20.7,7.3-20.7,20.8c-0.1,29.1-0.1,58.3,0,87.4c0,13.4,7.4,20.7,20.8,20.7c15.1,0,30.2,0,45.4,0
	c8,0,10.1,2,10.1,10c0,1.7,0,3.4,0,6.3c5.7-4.3,10.8-7.9,15.5-11.9c3.8-3.2,7.8-5,12.9-4.4c2.3,0.3,4.7,0.1,7.1,0
	c9.1-0.4,16.5-7.2,17.4-16.2c0.5-4.7,0.2-9.4,0.4-14.2c0.2-5.1,2.6-7.5,7.2-7.5c4.3,0.1,6.9,2.5,6.8,7.3c-0.1,6.9,0.2,14-1.3,20.6
	c-3.3,14.3-16.1,24.2-30.7,24c-6.8-0.1-12,1.7-17,6.1c-6.2,5.4-12.9,10.1-19.4,15.1c-2.6,2-5.3,3.5-8.7,1.8
	c-3.5-1.7-4.5-4.6-4.4-8.1c0.1-4.7,0-9.4,0-14.7c-4.3,0-8.1,0-12,0c-10.1,0-20.2,0-30.2,0c-19.9-0.1-33.8-13.8-34-33.9
	c-0.2-24.1,0-48.2-0.1-72.3c0-1.7,0-3.4,0-6.2c-4.6,3.5-8.3,6.3-12,9.1c-7.5,5.8-15,11.5-22.4,17.3c-2.7,2.1-5.4,3.2-8.7,1.6
	s-4.1-4.4-4.1-7.8c0.1-8,0-16,0-24.6c-2.4,0-4.3,0-6.1,0c-18.7,0-37.5,0.1-56.2,0C51,357.5,33.7,343.6,29.6,322
	c-0.5-2.6-0.6-5.3-0.6-8c0-23.2,0-46.3,0-69.5c0-5.6,1.9-8,6.2-8.4c5-0.5,7.9,2.4,8,8.2c0.1,10.6,0,21.1,0,31.7
	c0,12.1,0,24.3,0,36.4c0.1,19,11.9,31.1,30.9,31.2c21.9,0.1,43.8,0,65.7,0c9.3,0,11,1.7,11,11.1c0,4.5,0,9,0,14.4
	c1.8-1.2,3-1.9,4.1-2.7c6-4.6,12-9.2,18-13.9c6.1-4.7,11.8-9.3,14.9-17.3c4.4-11.1,14.2-17,26.3-17.8c5.6-0.4,11.3-0.1,17.4-0.1
	c0-2.7,0-4.5,0-6.4c0-41,0-81.9,0-122.9c0-20.3-11.9-32.2-32.4-32.2c-41.3,0-82.6,0.4-123.8-0.2c-18.3-0.2-33.4,13.2-32.1,32.1
	c0.3,3.8,0.1,7.6,0,11.3c-0.1,5.3-2.7,8-7.3,7.9c-4.5-0.1-6.9-2.6-6.8-7.8c0.1-7.7-0.4-15.6,1-23.1c3.7-19.8,21-34.3,41.2-34.4
	c44.1-0.3,88.2-0.1,132.3-0.1c2.6,0,5.3,0.5,8.5,0.8c0.1-1.8,0.2-3.4,0.2-5.1c0-22.4,0-44.7,0-67.1c0-29.9,16.1-49.6,45.3-55.7
	c0.4-0.1,0.8-0.4,1.2-0.6C295,14,331.3,14,367.5,14z"/>
<path class="st1" d="M161.6,242.9c-1,5.7-1.9,11.1-3,17.4c5.3,0,10.2,0,15.2,0c3.6,0,7.3-0.1,10.9,0.1c4.4,0.3,6.9,2.8,7.1,6.7
	c0.1,4.1-2.5,7.1-7,7.3c-8,0.2-16.1,0.2-24.1,0.1c-3.3-0.1-4.7,0.8-5.1,4.3c-0.8,7-2.2,14-3.5,20.9c-0.9,4.7-4.1,7.1-8.3,6.4
	c-4-0.7-6.4-4.3-5.7-8.9c1.1-7,2.3-14,3.4-21c0-0.3,0-0.6-0.1-1.4c-5.3,0-10.7,0-16.6,0c-1.3,7.7-2.7,15.6-4,23.4
	c-1,5.8-4,8.5-8.6,7.8c-4.4-0.8-6.4-4.5-5.4-10.3c1.1-6.8,2.3-13.6,3.6-21.3c-5,0-9.6,0-14.3,0c-2.2,0-4.4,0.1-6.6-0.1
	c-4.5-0.4-7.2-3.3-7-7.3c0.1-3.8,2.8-6.5,7.1-6.7c6-0.2,12-0.3,17.9,0c3.8,0.2,5.8-0.6,6-4.9c0.2-4,1.2-8,1.9-12.6
	c-8.8,0-16.9,0.1-25.1,0c-4.9-0.1-7.8-2.7-7.9-6.9c-0.1-4.3,3-7.2,8.1-7.2c9-0.1,17.9,0,27.3,0c1.3-7.5,2.5-14.8,3.7-22
	c0.2-1.4,0.4-2.8,0.8-4.2c1.2-4.1,4.2-6.1,8.1-5.3c4.1,0.8,6,3.6,5.5,7.5c-0.6,5.6-1.7,11.2-2.6,16.8c-0.3,2.2-0.7,4.3-1,6.9
	c5.7,0,11.1,0,16.9,0c1.1-6.7,2.3-13.5,3.4-20.3c0.3-1.7,0.5-3.4,0.9-5.1c1-4.3,4.2-6.5,8.3-5.8c3.9,0.7,6.2,4.1,5.6,8.5
	c-1.1,7.4-2.4,14.9-3.8,23.1c6.6,0,12.9-0.2,19.1,0.1c2.3,0.1,5.4,0.8,6.7,2.4c1.4,1.7,2.2,5.3,1.3,7.2c-1,2-4.1,4.1-6.5,4.3
	C177,243.3,169.4,242.9,161.6,242.9z M144.3,260.1c0.9-5.8,1.8-11.2,2.7-17c-6,0-11.3,0-17,0c-0.9,5.6-1.8,11.1-2.8,17
	C133.1,260.1,138.4,260.1,144.3,260.1z"/>
<path class="st1" d="M262.4,367.6c11.4-6.7,22-6.4,31,0.7s12.2,19.5,8.3,31.7c-2.5,8-7.5,14.3-14,19.1c-6.7,4.9-13.8,9.3-21,13.5
	c-1.9,1.1-5.2,1.4-7.1,0.5c-10.7-5.4-21.1-11.3-29.1-20.6c-5.4-6.3-8.5-13.5-8.6-21.9c-0.2-10.7,3.7-19.5,13.2-24.9
	C244.4,360.5,253.6,361.5,262.4,367.6z M236.1,388.7c-0.1,6.9,1.9,12,6.1,15.5c5.9,4.9,12.3,9.2,18.6,13.5c0.8,0.6,2.6,0.7,3.3,0.2
	c6.6-4.7,13.7-9.1,19.6-14.6c5.4-5,6.9-11.9,4.3-19.2c-1.5-4.2-4.7-6.6-9.2-7.2c-4.1-0.5-7.3,1-9.6,4.5c-4.1,6.1-9.1,6.1-13.3,0
	c-2.5-3.6-5.7-5.3-10-4.7c-4.5,0.6-7.4,3.3-8.8,7.5C236.4,386.1,236.2,388,236.1,388.7z"/>
<path class="st1" d="M318.2,129.2c6.6-7.6,13.7-15.4,20.4-23.5c5.1-6.2,7.8-13.6,8.4-21.7c0.2-2.8,0.3-5.8,1.2-8.4
	c2-5.7,6.4-9,12.4-9.6s10.8,1.9,13.8,7.2c8.2,14.7,9.5,30.1,4,46c-0.6,1.8-1.3,3.5-1.9,5.3c0,0.1,0.1,0.3,0.2,0.9
	c10.5,0,21.2,0,31.8,0c13.5,0,20.6,7.2,20.6,20.7c0,21.6,0,43.2,0,64.7c0,10.7-7,18.8-17.6,18.9c-23.9,0.4-47.9,0.4-71.8-0.3
	c-7.3-0.2-14.5-3.4-21.5-5.2c-3.3,0.8-6.9,2.2-10.5,2.3c-11,0.3-22,0.2-33.1,0.1c-6,0-8.4-2.3-8.4-8.2c-0.1-27.7-0.1-55.4,0-83.2
	c0-6,2.3-8.4,8.2-8.4c11.8-0.1,23.6-0.1,35.4,0.1C312.3,127.2,314.8,128.3,318.2,129.2z M361.9,80.1c-0.4,2-0.7,2.5-0.7,3.1
	c-0.6,14.7-6.9,26.8-16.7,37.5c-8.1,8.8-16,17.8-23.7,26.9c-1.3,1.5-2.3,3.8-2.3,5.8c-0.2,16.4-0.2,32.7,0,49.1c0,1.7,1.1,3.9,2.4,5
	c6.7,5.8,14.7,8.4,23.5,8.4c21.4,0,42.8,0,64.2,0c5.3,0,6.3-1.2,6.3-6.4c0-21.1,0-42.2,0-63.3c0-5.7-0.8-6.5-6.6-6.5
	c-13.9,0-27.7,0-41.6-0.1c-7.3-0.1-10.2-4.6-7.6-11.3c2-5,4.3-9.8,6-14.8C369,102.4,368,91.6,361.9,80.1z M280.6,141.4
	c0,23.9,0,47.4,0,71c7.9,0,15.5,0,23.3,0c0-23.8,0-47.3,0-71C296.1,141.4,288.6,141.4,280.6,141.4z"/>
</svg>
